Coordinates
version=1
nRows=4
nColumns=107
inDegrees=yes

Units are S.I. units (second, meters, Newtons, ...)
If the header above contains a line with 'inDegrees', this indicates whether rotational values are in degrees (yes) or radians (no).

endheader
time	sternoclavicular_r2	sternoclavicular_r3	unrotscap_r3	unrotscap_r2	acromioclavicular_r2	acromioclavicular_r3	acromioclavicular_r1	unrothum_r1	unrothum_r3	unrothum_r2	elv_angle	shoulder_elv	shoulder1_r2	shoulder_rot	elbow_flexion	pro_sup	deviation	flexion	proximal_distal_r1	proximal_distal_r3	cmc_flexion	cmc_abduction	mp_flexion	ip_flexion	mcp2_flexion	mcp2_abduction	pm2_flexion	md2_flexion	mcp3_flexion	mcp3_abduction	pm3_flexion	md3_flexion	mcp4_flexion	mcp4_abduction	pm4_flexion	md4_flexion	mcp5_flexion	mcp5_abduction	pm5_flexion	md5_flexion	bicpt_tx	bicpt_ty	bicpt_tz	bicpt2_tx	bicpt2_ty	bicpt2_tz	ptpt_tx	ptpt_ty	ptpt_tz	FCUpt_tx	FCUpt_ty	FCUpt_tz	EDCpt_tx	EDCpt_ty	EDCpt_tz	APLpt_tx	APLpt_ty	APLpt_tz	FPLpt_tx	FPLpt_ty	FPLpt_tz	FPLpt2_tx	FPLpt2_ty	FPLpt2_tz	PEC1pt2_tx	PEC1pt2_ty	PEC1pt2_tz	PEC1pt3_tx	PEC1pt3_ty	PEC1pt3_tz	PEC2pt2_tx	PEC2pt2_ty	PEC2pt2_tz	PEC2pt3_tx	PEC2pt3_ty	PEC2pt3_tz	PEC3pt2_tx	PEC3pt2_ty	PEC3pt2_tz	PEC3pt3_tx	PEC3pt3_ty	PEC3pt3_tz	DELT2pt2a_tx	DELT2pt2a_ty	DELT2pt2a_tz	DELT2pt2_tx	DELT2pt2_ty	DELT2pt2_tz	LAT1pt2_tx	LAT1pt2_ty	LAT1pt2_tz	LAT1pt3_tx	LAT1pt3_ty	LAT1pt3_tz	LAT2pt2_tx	LAT2pt2_ty	LAT2pt2_tz	LAT2pt3_tx	LAT2pt3_ty	LAT2pt3_tz	LAT3pt2_tx	LAT3pt2_ty	LAT3pt2_tz	LAT3pt3_tx	LAT3pt3_ty	LAT3pt3_tz
      0.00000000	     -0.31495428	      0.13339977	     -0.13339977	      0.31495428	     -0.06377183	      0.51538153	      0.23166045	     -0.23166045	     -0.51538153	      0.06377183	    100.18196191	     74.56822422	     -1.74850509	    -34.30792947	     32.41172138	     85.49201716	      0.35896866	     -0.49622834	      0.38170017	     -0.24811417	     42.98396960	    -21.79825263	     18.28681953	     10.07089314	     82.76790325	     12.41643127	     78.81907798	     86.18045676	     91.34129318	     -1.86769537	     80.24597275	     54.95443782	     91.60721516	    -13.85663987	     88.94708098	     42.55676667	    101.89784384	    -14.32481835	     85.72603628	      5.46109104	      0.00097208	     -0.03131488	     -0.00489837	      0.01429212	     -0.01900480	     -0.00116285	      0.00123310	     -0.06898461	     -0.00693684	      0.01267969	     -0.18225490	      0.00006990	     -0.01025902	      0.00355018	     -0.00074098	      0.00030151	      0.00012060	      0.00060302	      0.00038593	      0.00115779	      0.00065126	     -0.00000532	     -0.00004814	     -0.00005777	      0.00244418	      0.00857535	      0.00596546	     -0.00799538	      0.01930490	     -0.01831066	      0.00244418	      0.00857535	      0.00596546	      0.00053855	      0.01789639	     -0.00940389	      0.00388695	      0.00476864	      0.01581662	      0.00000000	      0.00743417	      0.00000000	     -0.00700113	     -0.03235435	     -0.00612780	      0.02066364	     -0.00090664	     -0.00970438	     -0.00086996	      0.01458224	     -0.00596546	      0.00240276	      0.02104483	     -0.01739927	     -0.00584118	      0.01263518	     -0.00534406	     -0.01217949	      0.02667888	     -0.02986874	     -0.02286761	      0.01412655	     -0.00716684	     -0.01516222	      0.03082156	     -0.03732557
      0.03333333	     -0.31533247	      0.13355995	     -0.13355995	      0.31533247	     -0.06384841	      0.51600039	      0.23193862	     -0.23193862	     -0.51600039	      0.06384841	    100.14486733	     74.65776422	     -1.74785766	    -33.96973513	     32.28702355	     85.30086995	      0.36263563	     -0.49693070	      0.38451030	     -0.24846535	     42.95840928	    -21.77776060	     18.09633062	      9.67745050	     83.08961244	     12.37298588	     78.17153043	     87.48674673	     91.64756945	     -1.71410787	     80.13830498	     54.91357649	     91.63312316	    -13.85886092	     88.96338774	     42.39186438	    102.03660017	    -14.32360781	     85.40296971	      5.45402428	      0.00096795	     -0.03130059	     -0.00489607	      0.01431162	     -0.01897093	     -0.00119542	      0.00124723	     -0.06897548	     -0.00692144	      0.01265776	     -0.18226134	      0.00006472	     -0.01023608	      0.00353972	     -0.00073490	      0.00030163	      0.00012065	      0.00060326	      0.00038609	      0.00115826	      0.00065152	     -0.00000538	     -0.00004873	     -0.00005847	      0.00244712	      0.00858565	      0.00597263	     -0.00800498	      0.01932808	     -0.01833264	      0.00244712	      0.00858565	      0.00597263	      0.00053920	      0.01791788	     -0.00941518	      0.00389039	      0.00477437	      0.01582524	      0.00000000	      0.00745215	      0.00000000	     -0.00700954	     -0.03239320	     -0.00614274	      0.02053242	     -0.00089473	     -0.00952376	     -0.00087101	      0.01459975	     -0.00597263	      0.00240564	      0.02107010	     -0.01742016	     -0.00584820	      0.01265035	     -0.00535048	     -0.01219411	      0.02671091	     -0.02990461	     -0.02289507	      0.01414351	     -0.00717545	     -0.01518042	      0.03085857	     -0.03737039
      0.06666667	     -0.31510981	      0.13346564	     -0.13346564	      0.31510981	     -0.06380333	      0.51563604	      0.23177485	     -0.23177485	     -0.51563604	      0.06380333	    100.16153446	     74.60504777	     -1.74814856	    -34.13678081	     32.38263817	     85.45104377	      0.35921689	     -0.49757471	      0.38189119	     -0.24878735	     42.98103353	    -21.71248771	     17.53869737	      9.25586433	     82.77160072	     12.38328811	     78.64854235	     86.02227013	     91.17761519	     -1.91580547	     80.24293362	     55.31084947	     91.33484205	    -13.85585250	     88.99988240	     42.61696616	    101.68789291	    -14.32154891	     85.82188410	      5.47555034	      0.00097112	     -0.03131155	     -0.00489783	      0.01429632	     -0.01899690	     -0.00116984	      0.00123613	     -0.06898265	     -0.00693354	      0.01267498	     -0.18225628	      0.00006879	     -0.01025410	      0.00354793	     -0.00073967	      0.00030175	      0.00012070	      0.00060351	      0.00038624	      0.00115873	      0.00065179	     -0.00000533	     -0.00004821	     -0.00005785	      0.00244539	      0.00857959	      0.00596841	     -0.00799933	      0.01931443	     -0.01831970	      0.00244539	      0.00857959	      0.00596841	      0.00053881	      0.01790523	     -0.00940853	      0.00388837	      0.00477100	      0.01582017	      0.00000000	      0.00744156	      0.00000000	     -0.00700459	     -0.03237033	     -0.00613394	      0.02059741	     -0.00090061	     -0.00961283	     -0.00087039	      0.01458944	     -0.00596841	      0.00240394	      0.02105522	     -0.01740786	     -0.00584407	      0.01264142	     -0.00534670	     -0.01218550	      0.02669205	     -0.02988349	     -0.02287890	      0.01413352	     -0.00717038	     -0.01516971	      0.03083678	     -0.03734400
      0.10000000	     -0.31491301	      0.13338229	     -0.13338229	      0.31491301	     -0.06376348	      0.51531401	      0.23163010	     -0.23163010	     -0.51531401	      0.06376348	    100.24688717	     74.55845482	     -1.74963825	    -34.41357341	     32.33860874	     85.61284646	      0.35578915	     -0.50932465	      0.37924482	     -0.25466233	     42.98353315	    -21.61420422	     17.30385944	      8.49248179	     82.56397495	     12.37663598	     78.80830980	     85.61860521	     91.18901678	     -1.81126482	     80.16540538	     55.17366090	     91.30727321	    -13.85032553	     89.22449129	     41.74898547	    101.52171879	    -14.32034522	     85.60554736	      5.46330941	      0.00096966	     -0.03130650	     -0.00489702	      0.01427975	     -0.01898494	     -0.00114223	      0.00122418	     -0.06899038	     -0.00694657	      0.01269355	     -0.18225082	      0.00007319	     -0.01027352	      0.00355679	     -0.00074483	      0.00030387	      0.00012155	      0.00060773	      0.00038895	      0.00116685	      0.00065635	     -0.00000532	     -0.00004815	     -0.00005778	      0.00244386	      0.00857423	      0.00596468	     -0.00799433	      0.01930237	     -0.01830826	      0.00244386	      0.00857423	      0.00596468	      0.00053848	      0.01789404	     -0.00940266	      0.00388657	      0.00476802	      0.01581568	      0.00000000	      0.00743221	      0.00000000	     -0.00700022	     -0.03235011	     -0.00612618	      0.02070427	     -0.00091037	     -0.00976109	     -0.00086985	      0.01458033	     -0.00596468	      0.00240244	      0.02104207	     -0.01739699	     -0.00584042	      0.01263353	     -0.00534336	     -0.01217789	      0.02667538	     -0.02986483	     -0.02286461	      0.01412470	     -0.00716590	     -0.01516023	      0.03081752	     -0.03732068
